<?xml version="1.0" encoding="UTF-8"?>
<svg width="24px" height="24px" viewBox="0 0 24 24" version="1.1" xmlns="http://www.w3.org/2000/svg" xmlns:xlink="http://www.w3.org/1999/xlink">
    <!-- Generator: Sketch 48.1 (47250) - http://www.bohemiancoding.com/sketch -->
    <title>Icon - tags</title>
    <desc>Created with Sketch.</desc>
    <defs></defs>
    <g id="Icons" stroke="none" stroke-width="1" fill="none" fill-rule="evenodd">
        <g id="Icon---tags" fill="#000000" fill-rule="nonzero">
            <path d="M2.4948369,2.50100513 L1.52481828,10.2611541 L12.5395154,22.2771873 L22.2928932,12.5238095 L11.2925636,1.52347994 L2.4948369,2.50100513 Z M1.99240308,1.55067699 L11.4209732,0.503058132 C11.571936,0.486284485 11.7223386,0.539042837 11.8297423,0.646446583 L23.3535503,12.170254 C23.5488124,12.3655161 23.5488124,12.6820986 23.3535503,12.8773607 L12.8773612,23.3535493 C12.6760724,23.554838 12.3475862,23.5477004 12.1552309,23.3378582 L0.631422912,10.7664319 C0.532304716,10.658303 0.485667113,10.5121039 0.503861061,10.3665523 L1.55147997,1.98560141 C1.58016836,1.7560943 1.76252453,1.57621905 1.99240308,1.55067699 Z" id="Path-3"></path>
            <polygon id="Line" points="19.5 9.79289322 20.2071068 10.5 10.5 20.2071068 9.79289322 19.5"></polygon>
            <path d="M7,8 C7.55228475,8 8,7.55228475 8,7 C8,6.44771525 7.55228475,6 7,6 C6.44771525,6 6,6.44771525 6,7 C6,7.55228475 6.44771525,8 7,8 Z M7,9 C5.8954305,9 5,8.1045695 5,7 C5,5.8954305 5.8954305,5 7,5 C8.1045695,5 9,5.8954305 9,7 C9,8.1045695 8.1045695,9 7,9 Z" id="Oval"></path>
        </g>
    </g>
</svg>