<!-- Generated by IcoMoon.io -->
<svg version="1.1" xmlns="http://www.w3.org/2000/svg" width="1024" height="1024" viewBox="0 0 1024 1024">
<title></title>
<g id="icomoon-ignore">
</g>
<path fill="#000" d="M303.954 528.51c-23.727 0-41.523 18.938-54.068 51.262-4.51 11.62-7.982 24.117-10.536 36.622-0.895 4.38-1.61 8.444-2.162 12.084-0.192 1.268-0.35 2.39-0.476 3.352-0.074 0.567-0.12 0.948-0.141 1.13-0.545 4.847-6.717 6.195-9.191 2.176-0.125-0.149-0.335-0.358-0.648-0.621-1.203-1.010-3.090-2.109-5.809-3.195-7.723-3.085-19.68-5.109-36.685-5.433-2.797-0.054-5.44-0.080-7.948-0.080-14.954 0-26.16 0.858-34.127 2.271-4.502 0.798-6.822 1.53-7.478 1.87-1.471 0.762-3.215 0.733-4.661-0.078-0.614-0.281-1.121-0.489-1.757-0.722-1.935-0.709-4.465-1.435-7.647-2.124-6.328-1.37-14.288-2.391-24.048-2.9-0.294-0.016-0.608-0.023-0.958-0.023-18.632 0-30.511 32.753-30.226 75.184 0.244 36.26 20.241 67.198 47.686 67.198 1.363 0 2.735-0.067 4.109-0.204 9.381-0.932 14.597-3.156 16.601-6.025 1.403-2.007 1.453-4.937 0.082-9.287-0.621-1.97-1.458-4.029-2.76-6.904 0.003 0.006-1.705-3.717-2.157-4.741-0.813-1.846-1.385-3.305-1.801-4.67-4.277-14.061-3.028-26.965 1.664-38.025 1.616-3.811 3.271-6.561 4.473-8.141 1.806-2.375 5.214-2.652 7.364-0.599 0.301 0.288 0.935 0.869 1.886 1.702 1.613 1.414 3.509 2.997 5.67 4.705 6.199 4.901 13.259 9.809 21.041 14.388 6.045 3.557 12.29 6.77 18.697 9.556 29.858 12.977 56.946 20.825 74.959 20.825 5.298 0 9.691-0.681 13.079-2.014 34.337-13.514 78.485-62.135 88.764-99.708 6.852-25.041 8.714-46.011 3.837-63.556-6.152-22.132-22.976-37.214-53.658-44.017-3.797-0.844-7.449-1.256-10.969-1.256zM317.045 519.752c34.171 7.577 53.964 25.32 61.165 51.227 5.493 19.76 3.48 42.424-3.826 69.124-11.143 40.729-57.558 91.847-94.812 106.509-4.655 1.832-10.233 2.696-16.671 2.696-19.682 0-47.875-8.167-78.872-21.64-6.79-2.952-13.392-6.348-19.773-10.104-8.197-4.823-15.629-9.99-22.171-15.162-1.271-1.005-2.458-1.971-3.56-2.892-0.179 0.387-0.356 0.785-0.53 1.196-3.791 8.936-4.799 19.354-1.288 30.897 0.271 0.891 0.708 2.006 1.369 3.506 0.413 0.939 2.085 4.582 2.112 4.641 1.46 3.223 2.433 5.616 3.206 8.070 4.989 15.833-2.386 26.386-25.244 28.658-1.697 0.169-3.392 0.252-5.076 0.252-34.046 0-57.419-36.162-57.697-77.376-0.321-47.762 13.366-85.502 40.237-85.502 0.514 0 0.999 0.011 1.472 0.036 10.264 0.536 18.745 1.623 25.605 3.109 3.615 0.783 6.579 1.634 8.949 2.501 0.334 0.122 0.645 0.241 0.933 0.355 2.291-0.725 4.783-1.324 7.881-1.873 8.573-1.52 20.341-2.421 35.836-2.421 2.573 0 5.278 0.027 8.135 0.082 18.103 0.345 31.198 2.562 40.137 6.132 1.206 0.482 2.311 0.976 3.318 1.478 0.472-2.808 1.027-5.804 1.671-8.955 2.664-13.040 6.288-26.086 11.032-38.308 13.892-35.793 34.502-57.726 63.372-57.726 4.245 0 8.608 0.492 13.092 1.489z"></path>
<path fill="#000" d="M411.897 408.872c-3.313 8.322-5.959 17.019-7.692 25.947-1.657 8.531-3.59 31.782-3.938 53.501-0.495 30.878 1.834 58.081 7.779 78.012 7.338 24.591 19.064 47.959 33.965 69.805 9.215 13.51 19.085 25.623 28.961 36.172 3.303 3.528 6.385 6.641 9.177 9.321-0.945 0.816-2 1.678-3.168 2.579-6.251 4.826-14.283 9.686-24.267 14.248-6.349 2.901-13.294 5.585-20.858 8.003-19.102 6.107-35.497 10.62-50.353 13.336-30.776 5.628-48.354 3.978-55.961-1.548-1.172-0.851-1.882-1.661-2.271-2.377-0.462-2.822-2.973-4.802-5.714-4.438s-4.676 2.934-4.32 5.74c0.125 0.989 0.512 2.256 1.286 3.679 1.117 2.055 2.837 4.017 5.226 5.753 10.267 7.457 30.351 9.342 63.515 3.278 15.365-2.809 32.104-7.417 51.577-13.642 7.936-2.537 15.247-5.362 21.954-8.427 10.676-4.879 19.361-10.134 26.214-15.423 4.215-3.253 6.925-5.859 8.296-7.473 1.828-2.153 1.586-5.42-0.538-7.267-0.134-0.116-0.419-0.37-0.846-0.758-0.728-0.662-1.578-1.453-2.539-2.37-2.764-2.638-5.852-5.747-9.182-9.304-9.536-10.185-19.078-21.896-27.981-34.948-14.337-21.018-25.591-43.445-32.598-66.931-5.575-18.689-7.824-44.952-7.344-74.85 0.339-21.155 2.224-43.829 3.747-51.672 1.601-8.25 4.059-16.33 7.143-24.077 2.015-5.062 4.173-9.673 6.326-13.735 0.748-1.412 1.44-2.65 2.056-3.703 0.359-0.614 0.607-1.019 0.723-1.202 2.569-4.044-1.248-9.15-5.733-7.669-0.324 0.107-0.943 0.314-1.835 0.615-1.481 0.501-3.198 1.089-5.13 1.76-5.514 1.915-11.655 4.112-18.267 6.56-18.898 6.995-37.799 14.597-55.46 22.55-26.593 11.975-47.983 23.672-62.39 34.806-0.902 0.697-1.777 1.392-2.623 2.084-38.455 31.471-49.933 58.653-49.933 106.603 0 8.692 2.39 29.302 4.812 34.811 1.134 2.581 4.098 3.731 6.619 2.57s3.645-4.195 2.511-6.775c-1.67-3.799-3.931-23.289-3.931-30.606 0-44.974 10.22-69.175 46.174-98.6 0.773-0.632 1.574-1.269 2.403-1.91 13.653-10.552 34.447-21.922 60.389-33.604 17.432-7.85 36.131-15.371 54.833-22.293 4.536-1.679 8.848-3.239 12.882-4.669-1.263 2.691-2.504 5.542-3.697 8.54z"></path>
<path fill="#000" d="M583.255 650.845c-0.254 0.124-0.8 0.381-1.628 0.75-1.41 0.63-3.077 1.335-4.987 2.097-5.493 2.192-11.816 4.39-18.871 6.444-7.51 2.186-15.412 4.078-23.646 5.586-13.327 2.441-25.444 4.356-36.116 5.805-3.728 0.506-7.008 0.918-9.809 1.242-0.977 0.113-1.822 0.207-2.534 0.283-0.422 0.045-0.702 0.074-0.837 0.087-2.752 0.269-4.77 2.771-4.507 5.588s2.707 4.883 5.459 4.614c0.163-0.016 0.471-0.047 0.921-0.095 0.741-0.079 1.617-0.176 2.623-0.293 2.864-0.332 6.207-0.751 10-1.266 10.818-1.469 23.083-3.408 36.563-5.877 8.572-1.57 16.798-3.539 24.622-5.816 7.368-2.145 13.99-4.446 19.769-6.753 2.035-0.812 3.823-1.569 5.352-2.252 0.936-0.418 1.59-0.724 1.948-0.9 2.494-1.222 3.547-4.281 2.354-6.834s-4.183-3.631-6.676-2.409z"></path>
<path fill="#000" d="M416.691 425.301c42.51-26.163 84.325-43.072 125.452-50.76 41.56-7.768 78.334-12.619 110.311-14.557 2.76-0.167 4.865-2.593 4.701-5.418s-2.533-4.979-5.293-4.812c-32.413 1.964-69.582 6.867-111.518 14.705-42.369 7.92-85.309 25.283-128.813 52.058-2.369 1.458-3.135 4.606-1.71 7.031s4.5 3.209 6.869 1.751z"></path>
<path fill="#000" d="M604.785 457.346c-32.766 0.003-41.849 43.736-38.855 97.63 3.303 59.46 37.043 164.646 55.041 204.311 18.001 39.668 25.874 58.687 25.874 58.687s7.778 13.117 44.517 16.735c4.583 0.45 9.154 0.659 13.682 0.659 31.775 0 61.050-10.182 71.531-17.394 12.499-8.595-2.547-23.443-19.249-34.474-13.724-9.065-26.258-11.476-35.71-11.476-10.741 0-17.501 3.111-17.501 3.111s2.29-4.633-1.539-33.869c-3.83-29.231-20.124-67.453-30.331-116.63-10.206-49.174-1.923-71.497-4.491-112.892-2.573-41.398-27.403-52.98-61.428-54.366-0.521-0.022-1.034-0.033-1.542-0.033zM604.788 457.346v8.137c0.405 0 0.812 0.008 1.225 0.024 36.26 1.478 51.851 15.024 53.822 46.755 0.931 14.991 0.389 27.625-0.135 39.844-0.899 20.828-1.825 42.367 4.787 74.226 5.078 24.471 11.624 46.199 17.395 65.372 5.885 19.542 10.968 36.418 12.833 50.647 2.933 22.396 2.074 29.109 1.894 30.147-0.957 2.845-0.328 6.043 1.735 8.264 1.534 1.649 3.615 2.531 5.737 2.531 1.087 0 2.185-0.231 3.224-0.705 0.053-0.024 5.62-2.428 14.314-2.428 10.619 0 21.19 3.426 31.412 10.177 17.313 11.435 20.36 18.628 20.251 19.846 0 0.003-0.209 0.404-1.127 1.033-9.386 6.458-37.204 16.014-67.109 16.014-4.396 0-8.741-0.212-12.922-0.621-27.707-2.729-36.731-11.012-38.395-12.821-1.865-4.445-9.984-23.6-25.559-57.935-16.683-36.763-50.976-141.155-54.316-201.341-2.243-40.319 2.848-69.384 14.33-81.85 4.446-4.831 9.878-7.18 16.604-7.18l0.003-8.137z"></path>
<path fill="#000" d="M672.874 609.531c0.561-0.412 1.562-1.18 2.94-2.29 2.267-1.826 4.786-3.965 7.493-6.402 7.72-6.949 15.435-14.92 22.644-23.805 6.585-8.115 12.427-16.615 17.327-25.462 8.367-15.106 14.364-26.644 18.387-35.095 2.467-5.182 3.74-8.229 4.215-9.642 0.9-2.676-0.49-5.591-3.104-6.512s-5.463 0.501-6.362 3.177c-0.059 0.174-0.265 0.716-0.668 1.681-0.714 1.708-1.724 3.958-3.081 6.807-3.925 8.244-9.827 19.598-18.097 34.53-4.592 8.291-10.096 16.299-16.319 23.968-6.854 8.446-14.206 16.042-21.555 22.657-2.566 2.31-4.945 4.33-7.072 6.043-0.738 0.594-1.39 1.107-1.948 1.535-0.325 0.249-0.54 0.41-0.637 0.482-2.246 1.649-2.761 4.85-1.15 7.15s4.739 2.827 6.985 1.177z"></path>
<path fill="#000" d="M922.345 707.552c-0.412 0.462-0.989 0.996-1.726 1.568-2.066 1.604-4.954 3.183-8.722 4.587-10.671 3.979-26.164 5.827-47.148 4.566-19.122-1.148-34.553-4.629-46.661-9.681-5.164-2.155-9.338-4.44-12.6-6.694-1.856-1.283-2.951-2.215-3.36-2.636-0.337-0.347-0.721-0.643-1.14-0.878-0.14-0.079-0.418-0.235-0.821-0.463-0.673-0.381-1.455-0.824-2.336-1.325-2.519-1.432-5.327-3.040-8.351-4.785-8.638-4.986-17.275-10.075-25.33-14.967-1.641-0.997-3.244-1.977-4.806-2.939-8.684-5.349-15.89-10.010-21.218-13.77-18.728-13.218-38.318-35.107-43.522-47.546-3.189-7.625-4.312-10.558-5.271-13.563-0.157-0.493-0.504-1.599-0.611-1.934-0.23-0.724-0.442-1.38-0.68-2.096-0.89-2.679-3.734-4.112-6.351-3.201s-4.017 3.822-3.127 6.501c0.222 0.667 0.42 1.279 0.636 1.96 0.101 0.319 0.448 1.424 0.525 1.666 1.159 3.633 2.38 6.821 5.676 14.701 6.037 14.429 26.88 37.718 47.042 51.949 5.529 3.902 12.894 8.666 21.739 14.114 1.579 0.973 3.2 1.964 4.859 2.971 8.125 4.934 16.823 10.060 25.521 15.080 3.043 1.757 5.87 3.375 8.407 4.817 0.889 0.505 1.678 0.953 2.359 1.337 1.203 1.014 2.617 2.158 4.557 3.499 3.833 2.65 8.617 5.269 14.424 7.692 13.144 5.484 29.655 9.208 49.853 10.421 22.265 1.338 39.101-0.67 51.162-5.167 8.644-3.223 14.398-7.689 16.239-11.485 3.931-7.846-0.188-13.802-15.618-21.909-5.255-2.763-11.737-4.985-19.195-6.763-6.768-1.613-13.978-2.778-21.182-3.572-2.517-0.278-4.856-0.49-6.96-0.645-0.302-0.364-0.552-0.756-0.827-1.181-1.799-2.789-4.019-6.087-6.681-9.883-7.573-10.797-17.183-23.438-29.007-37.827-7.37-8.97-13.991-16.192-20.798-22.884-4.038-3.971-16.578-15.536-15.32-14.353-3.136-2.952-5.597-5.422-7.957-8.033-3.196-3.535-6.171-7.303-9.219-11.741-3.904-5.685-7.003-12.979-9.336-21.503-2.17-7.926-3.567-16.473-4.335-25.060-0.274-3.068-0.449-5.94-0.543-8.544-0.059-1.633-0.077-2.861-0.074-3.611 0.023-2.853-2.2-5.165-4.964-5.189s-5.024 2.252-5.046 5.082c-0.004 0.951 0.016 2.318 0.080 4.097 0.101 2.783 0.286 5.839 0.578 9.099 0.819 9.163 2.314 18.304 4.665 26.891 2.617 9.559 6.154 17.887 10.786 24.631 3.305 4.813 6.562 8.937 10.062 12.809 2.565 2.836 5.209 5.49 8.528 8.615-1.153-1.085 11.259 10.363 15.161 14.2 6.554 6.444 12.932 13.401 20.072 22.090 11.66 14.188 21.112 26.623 28.536 37.207 2.586 3.688 4.732 6.876 6.46 9.554 0.599 0.929 1.102 1.725 1.512 2.388 0.239 0.386 0.389 0.635 0.455 0.746 0.865 1.463 2.387 2.388 4.056 2.465 0.425 0.020 1.257 0.069 2.439 0.156 1.99 0.147 4.211 0.348 6.606 0.612 6.83 0.753 13.654 1.855 19.984 3.364 6.724 1.603 12.467 3.572 16.893 5.899 6.543 3.437 10.182 6.056 11.467 7.749-0.188 0.374-0.283 0.508-0.495 0.745z"></path>
<path fill="#000" d="M753.975 201.783c2.033-0.992 9.884-5.008 11.62-5.869 16.884-8.375 30.442-12.406 47.901-12.406 17.425 0 36.766 4.531 58.949 14.416 34.587 15.409 70.546 51.673 84.405 80.043 9.596 19.642 13.065 38.333 11.361 57.889-1.401 16.080-5.911 31.717-14.781 54.316-6.097 15.534-15.932 31.033-28.734 46.66-5.667 6.918-11.634 13.527-18.241 20.365-3.547 3.671-12.55 12.673-12.946 13.079-0.553 0.569-3.286 3.393-4.102 4.231-1.856 1.909-3.494 3.573-5.172 5.248-4.403 4.395-8.628 8.4-12.935 12.201-11.604 10.24-22.637 17.955-33.214 22.521-0.742 0.32-1.481 0.624-2.216 0.912-14.195 5.549-29.994 8.567-45.14 8.567-10.308 0-20.132-1.394-28.97-4.197-11.629-3.69-22.987-9.454-34.468-16.976-4.284-2.806-8.434-5.756-12.817-9.055-1.654-1.245-3.26-2.477-5.192-3.978-0.207-0.16-3.451-2.687-4.271-3.32-18.237-14.076-39.312-48.926-54.134-85.266-3.647-8.943-5.282-19.932-5.276-32.539 0.005-11.536 1.373-23.816 3.647-36.082 0.795-4.291 1.648-8.277 2.502-11.861 0.12-0.504 0.237-0.986 0.35-1.444-1.401-1.404-2.959-3.188-4.514-5.333-9.993-13.785-10.593-30.097 4.237-46.182 9.277-10.062 18.17-14.661 26.905-14.661 4.757 0 8.855 1.26 13.436 3.598 0.6 0.306 2.067 1.097 3.047 1.622 7.325-14.087 42.026-48.332 58.767-56.498zM758.283 211.034c-15.531 7.575-51.674 43.778-54.623 52.894-1.074 3.32-3.504 5.5-6.875 5.5-1.707 0-3.164-0.505-5.106-1.481-0.643-0.323-3.295-1.765-3.986-2.117-3.315-1.692-6.013-2.521-8.969-2.521-5.732 0-12.112 3.299-19.623 11.447-11.187 12.134-10.789 22.957-3.478 33.042 1.165 1.607 2.417 3.040 3.663 4.27 0.723 0.713 1.255 1.179 1.499 1.373l2.679 2.121-0.927 3.335c-0.048 0.172-0.144 0.53-0.282 1.063-0.235 0.905-0.497 1.959-0.781 3.15-0.814 3.418-1.63 7.233-2.392 11.343-2.166 11.687-3.466 23.359-3.471 34.177-0.005 11.363 1.439 21.073 4.503 28.587 14.188 34.786 34.48 68.34 50.923 81.032 0.841 0.649 4.104 3.19 4.295 3.339 1.896 1.472 3.464 2.676 5.072 3.886 4.221 3.177 8.198 6.003 12.283 8.68 10.779 7.062 21.359 12.432 32.034 15.819 7.834 2.485 16.664 3.737 26.007 3.737 13.918 0 28.507-2.787 41.568-7.893 0.627-0.245 1.26-0.506 1.898-0.781 9.447-4.078 19.686-11.237 30.567-20.84 4.138-3.652 8.216-7.519 12.483-11.777 1.638-1.635 3.242-3.265 5.065-5.14 0.804-0.827 3.539-3.653 4.106-4.235 0.465-0.478 9.45-9.461 12.92-13.052 6.427-6.652 12.214-13.061 17.688-19.743 12.179-14.867 21.466-29.502 27.116-43.896 17.62-44.889 19.877-70.803 3.755-103.801-12.838-26.278-47.077-60.809-79.446-75.23-20.977-9.347-38.976-13.564-54.953-13.564-15.712 0-27.894 3.622-43.535 11.38-1.651 0.819-9.54 4.854-11.678 5.898z"></path>
<path fill="#000" d="M443.537 406.512c-0.294-2.081-0.99-4.979-2.297-7.971-1.289-2.95-2.965-5.401-5.21-7.15-2.259-1.762-4.483-3.074-6.59-4-1.355-0.596-2.437-0.939-3.169-1.098-2.705-0.586-5.361 1.184-5.933 3.952s1.157 5.488 3.861 6.073c0.107 0.023 0.561 0.167 1.291 0.488 1.369 0.602 2.882 1.494 4.475 2.737 0.718 0.56 1.474 1.665 2.137 3.182 0.498 1.139 0.901 2.405 1.206 3.677 0.182 0.757 0.285 1.32 0.322 1.579 0.396 2.801 2.936 4.742 5.672 4.336s4.633-3.005 4.236-5.805z"></path>
<path fill="#000" d="M522.574 674.063c0.008 0.175 0.008 0.175 0.021 0.368-0.019-0.253-0.029-0.505-0.029-0.755 0 0.112 0.002 0.241 0.008 0.387zM527.189 668.575c2.756-0.217 5.163 1.894 5.375 4.716 0.007 0.105 0.007 0.105 0.012 0.21 0.096 2.644-1.661 7.659-6.65 17.021-4.783 8.976-6.524 11.961-10.389 16.998-9.63 12.551-22.475 21.047-40.337 24.472-2.994 0.574-6.076 0.975-9.239 1.211-13.706 1.024-28.242-1.012-42.581-5.019-4.116-1.15-7.909-2.383-11.298-3.62-2.056-0.75-3.537-1.341-4.359-1.696-2.548-1.097-3.746-4.101-2.674-6.709s4.006-3.834 6.555-2.737c0.146 0.063 0.465 0.195 0.947 0.388 0.826 0.33 1.794 0.7 2.892 1.101 3.16 1.152 6.714 2.308 10.575 3.387 13.334 3.727 26.798 5.612 39.215 4.685 2.797-0.209 5.508-0.561 8.124-1.063 15.367-2.947 26.119-10.059 34.307-20.73 3.399-4.43 4.966-7.115 9.474-15.576 2.545-4.776 4.141-8.28 4.976-10.664 0.251-0.716 0.396-1.227 0.461-1.546 0.131-2.531 2.080-4.631 4.615-4.83z"></path>
</svg>
